<?xml version="1.0" encoding="utf-8"?>
<svg version="1.1" xmlns="http://www.w3.org/2000/svg" xmlns:xlink="http://www.w3.org/1999/xlink"
     viewBox="0 0 512 512" xml:space="preserve">
  <defs>
    <style>
      @keyframes spin   { to { transform: rotate(360deg); } }
      @keyframes breathe { 0%,100%{opacity:1} 50%{opacity:0.65} }
      .loader { transform-origin:256px 256px; animation:spin 1.8s linear infinite; }
      .icon   { transform-origin:256px 256px; animation:breathe 2.4s ease-in-out infinite; }
    </style>
  </defs>

  <!-- Navy background -->
  <rect width="512" height="512" rx="80" fill="#001E72"/>

  <!-- Spinning loader arc -->
  <circle class="loader" cx="256" cy="256" r="236"
    fill="none" stroke="#278ACC" stroke-width="22"
    stroke-dasharray="310 1482" stroke-linecap="round"/>

  <!-- Globe icon (white) -->
  <g class="icon" fill="#FFFFFF">
    <path d="M474.41,319.3c-16.21-29.04-37.8-54.23-64.18-74.87l-11.98-9.33l-0.36,15.13c-0.04,1.33-0.09,2.85-0.19,4.37
      l-0.2,3.92l3.06,2.45c23.5,18.83,42.76,41.56,57.26,67.57c18.71,33.47,28.89,71.47,29.46,109.9
      c-33.07,19.25-70.84,30.08-109.23,31.31c-2.39,0.05-4.85,0.1-7.27,0.1c-27.39,0-54.3-4.83-79.98-14.35
      c-2.66-0.95-5.57-2.1-9.44-3.7l-0.45-0.2c32.54-21.71,59.83-51.05,78.97-84.91c20.05-35.43,31.26-75.56,32.4-116.05
      c0.05-1.87,0.09-3.54,0.09-5.21v-5.3c-0.03-0.68-0.04-1.35-0.05-2.02c-0.01-0.7-0.02-1.4-0.05-2l0.05-0.43l0.05-1.95
      l-0.2-0.35c-0.09-2.84-0.28-5.76-0.47-8.52c-0.07-0.75-0.12-1.5-0.18-2.23c-0.06-0.8-0.12-1.6-0.2-2.4
      c-0.4-3.9-0.83-7.56-1.29-10.88c-4.48-32.48-15.08-63.32-31.49-91.66c-22.17-38.3-54.36-70.13-93.09-92.05
      c-2.18-1.23-4.13-2.33-6.01-3.29l-7.72-4.08l-7.48,4.43c-37.81,22.12-69.31,54.12-91.09,92.52
      c-16.51,29.15-26.87,60.78-30.78,94l-1.78,14.73l13.05-7.14c0.91-0.52,1.84-1.02,2.76-1.51l0.97-0.52l2.04-1.02
      l1.89-3.26l0.2-1.53c3.85-29.78,13.31-58.17,28.13-84.39c19.81-34.93,48.37-64.18,82.58-84.6
      c0.71,0.39,1.43,0.79,2.17,1.2c0.55,0.31,1.12,0.63,1.71,0.95c35.77,20.28,65.53,49.7,86.06,85.06
      c14.74,25.53,24.39,53.17,28.7,82.17c0.52,3.23,0.95,6.46,1.33,10.16c0.02,0.16,0.03,0.32,0.04,0.47
      c-35.82-18.83-75.93-28.78-116.07-28.78c-1.55,0-3.15,0-4.72,0.05c-21.56,0.38-43.04,3.59-63.84,9.54
      c-2.57,0.71-5.17,1.48-7.74,2.29l-3.86,1.29l-0.86,0.29c-1.66,0.57-3.37,1.15-4.96,1.76l-1.43,0.53
      c-1.35,0.5-2.72,1-4.1,1.53c-2.5,0.99-4.99,2.04-7.49,3.1c-6.84,2.94-13.55,6.18-19.93,9.63
      c-1.08,0.54-2.11,1.11-3.2,1.72c-0.46,0.25-0.92,0.51-1.4,0.77l-3.29,1.91l-6.71,4.05l-0.24,0.2
      c-2.61,1.6-5.09,3.26-6.98,4.53l-3.77,2.62c-3.44,2.43-6.18,4.46-8.64,6.39c-26.44,20.44-48.23,45.6-64.75,74.77
      c-21.88,38.61-33.12,82.38-32.5,126.59l0.1,8.66l7.48,4.53c0.7,0.4,1.4,0.82,2.1,1.23c1.11,0.65,2.24,1.32,3.38,1.96
      c37.56,21.26,80.15,32.5,123.16,32.5v0.03h4.09c32.9-0.57,64.93-7.46,95.19-20.47l14.01-6.06l-12.47-7.14
      c-0.76-0.44-1.53-0.9-2.31-1.37c-0.48-0.29-0.96-0.58-1.44-0.86l-3.62,1.48c-27.2,11.39-56,17.44-85.57,17.96h-3.76
      c-39.74,0-79.11-10.4-113.85-30.08l-1.24-0.71c-0.75-0.42-1.5-0.85-2.22-1.28c-0.24-40.17,10.14-79.96,30.03-115.09
      c14.86-26.2,34.35-48.93,57.93-67.57c2.3-1.83,4.83-3.76,7.97-6.07c0.18-0.12,0.35-0.23,0.52-0.35
      c1.16,18.55,4.27,36.74,9.25,54.07c1.1,3.77,2.08,6.94,3.01,9.68c1.42,4.31,3.03,8.76,4.77,13.22
      c1,2.53,2.07,5.05,3.1,7.49c3.59,8.33,7.86,16.86,12.69,25.34c21.54,37.56,52.81,69.06,90.42,91.09
      c0.54,0.32,1.1,0.64,1.7,0.99c0.56,0.33,1.16,0.67,1.84,1.07l2.69,1.47c1,0.55,1.99,1.1,2.99,1.63l4.05,2.1
      c2.95,1.5,6.11,3.01,9.63,4.62c1.39,0.67,2.85,1.3,4.26,1.91c3.63,1.57,6.94,2.91,10.12,4.1
      c28.65,10.96,58.64,16.51,89.13,16.51c2.63,0,5.28-0.05,7.87-0.14c42.18-1.34,83.66-13.42,119.96-34.93l7.67-4.53v-8.96
      C506,398.03,494.98,356.19,474.41,319.3z M140.13,241.28c1.35-0.79,2.75-1.61,4.18-2.37
      c32.89-18.06,70.06-27.99,107.49-28.7c1.47-0.05,2.88-0.05,4.37-0.05c39.12,0,77.98,10.12,112.38,29.27
      l1.95,1.11l-0.04,0.04l2.97,1.75V243c0,1.61,0,3.28-0.05,4.9c-0.14,8.65-0.83,17.65-2.04,26.74l-0.15,0.98
      c-0.33,2.16-0.67,4.35-1.04,6.54l-0.67,3.76c-0.39,2.29-0.89,4.71-1.52,7.4l-0.76,3.29c-0.47,2.18-1.05,4.35-1.61,6.46
      c-0.59,2.26-1.21,4.42-1.8,6.41l-0.58,1.88c-0.46,1.49-0.92,2.98-1.42,4.48l-1.1,3.19c-0.76,2.28-1.59,4.49-2.61,7.12
      l-1.38,3.61c-0.87,2.13-1.85,4.43-2.99,7.03c-3.15,7.09-6.62,13.99-10.31,20.53
      c-18.84,33.26-45.74,61.49-77.79,81.64l-4.71,2.99c-1.15-0.61-3.11-1.69-3.97-2.19l-1-0.57
      c-35.59-20.36-65.17-49.85-85.53-85.29c-18.62-32.45-29.22-69.42-30.65-106.92l-0.22-5.37L140.13,241.28z"/>
  </g>
</svg>
